<svg xmlns="http://www.w3.org/2000/svg" version="1.1" xmlns:xlink="http://www.w3.org/1999/xlink" xmlns:svgjs="http://svgjs.com/svgjs" width="1440" height="560" preserveAspectRatio="none" viewBox="0 0 1440 560"><g mask="url(&quot;#SvgjsMask1148&quot;)" fill="none"><rect width="1440" height="560" x="0" y="0" fill="url(#SvgjsLinearGradient1149)"></rect><path d="M0 0L62.79 0L0 23.61z" fill="rgba(255, 255, 255, .1)"></path><path d="M0 23.61L62.79 0L433.37 0L0 231.16000000000003z" fill="rgba(255, 255, 255, .075)"></path><path d="M0 231.16000000000003L433.37 0L908.8199999999999 0L0 384.67z" fill="rgba(255, 255, 255, .05)"></path><path d="M0 384.67L908.8199999999999 0L1162.6499999999999 0L0 436.37z" fill="rgba(255, 255, 255, .025)"></path><path d="M1440 560L1060.03 560L1440 379.7z" fill="rgba(0, 0, 0, .1)"></path><path d="M1440 379.7L1060.03 560L705.46 560L1440 289.29999999999995z" fill="rgba(0, 0, 0, .075)"></path><path d="M1440 289.29999999999995L705.46 560L623.22 560L1440 137.62999999999997z" fill="rgba(0, 0, 0, .05)"></path><path d="M1440 137.63L623.22 560L568.1 560L1440 119.55z" fill="rgba(0, 0, 0, .025)"></path></g><defs><mask id="SvgjsMask1148"><rect width="1440" height="560" fill="#ffffff"></rect></mask><linearGradient x1="15.28%" y1="-39.29%" x2="84.72%" y2="139.29%" gradientUnits="userSpaceOnUse" id="SvgjsLinearGradient1149"><stop stop-color="rgba(58, 14, 121, 1)" offset="0"></stop><stop stop-color="rgba(134, 30, 221, 1)" offset="1"></stop></linearGradient></defs></svg>